# xmcd CD database file
# Copyright (C) 1993-1996 Ti Kan
#
# Track frame offsets:
#	150
#	16795
#	25302
#	33097
#	59025
#	106015
#	126792
#	139560
#
# Disc length: 2165 seconds
#
# Revision: 2
# Processed by: cddbd v1.4b41PL1 Copyright (c) Steve Scherf et al.
# Submitted via: CDValet v3.01 - Copyright (c) 1997 Greg Leichner
#
DISCID=5d087308
DTITLE=Muddy Waters and The Rolling Stones - Sweet Home Chicago [CDOne)
DYEAR=1900
DGENRE=
TTITLE0=Sweet Little Angel
TTITLE1=Flip Flop and Fly
TTITLE2=Introduction
TTITLE3=Down the Road I Go
TTITLE4=Country Boy
TTITLE5=I'm a King Bee
TTITLE6=Someday Baby
TTITLE7=County Jail
EXTD=
EXTT0=
EXTT1=
EXTT2=
EXTT3=
EXTT4=
EXTT5=
EXTT6=
EXTT7=
PLAYORDER=
